<svg xmlns="http://www.w3.org/2000/svg" version="1.1" xmlns:xlink="http://www.w3.org/1999/xlink" xmlns:svgjs="http://svgjs.dev/svgjs" width="3500" height="2333" preserveAspectRatio="none" viewBox="0 0 3500 2333"><g mask="url(&quot;#SvgjsMask1028&quot;)" fill="none"><path d="M-295.2914367984856 384.8711554535847L316.8548962283777 724.1894086639957 656.1731494387886 112.04307563713229 44.02681641192527-227.2751775732786z" fill="rgba(74, 151, 72, 0.4)" class="triangle-float2"></path><path d="M159.10710229775356-148.3893698305667L-89.03505166876948 612.8443935666998 598.0058140262504 479.2971777026562z" fill="rgba(74, 151, 72, 0.4)" class="triangle-float1"></path><path d="M-89.91921527826618 678.1730842578858L601.3638543042707 568.684602176228-199.40769735992387-13.10998532465112z" fill="rgba(74, 151, 72, 0.4)" class="triangle-float3"></path><path d="M3816.509622078486 223.70303734846104L3313.0436958214636-262.4883561357909 3330.318228594234 727.1689636054831z" fill="rgba(74, 151, 72, 0.4)" class="triangle-float2"></path><path d="M2768.3273535546155 465.6949816524568L3426.018218842673 705.0748799660919 3665.398117156308 47.38401467803459 3007.7072518682508-191.99588363560053z" fill="rgba(74, 151, 72, 0.4)" class="triangle-float1"></path><path d="M3266.844,530.319C3377.922,533.052,3486.22,488.211,3546.946,395.161C3613.839,292.662,3633.714,162.796,3577.726,53.956C3517.02,-64.057,3399.523,-146.446,3266.844,-149.359C3129.295,-152.378,2991.336,-84.066,2931.387,39.768C2876.745,152.64,2938.851,278.428,3009.638,381.942C3069.52,469.51,3160.791,527.71,3266.844,530.319" fill="rgba(74, 151, 72, 0.4)" class="triangle-float1"></path><path d="M269.22,2497.878C397.605,2496.707,511.506,2423.727,577.878,2313.824C646.79,2199.715,666.958,2059.781,605.103,1941.698C538.801,1815.127,412.082,1727.154,269.22,1724.592C122.096,1721.953,-18.741,1799.541,-88.201,1929.263C-154.345,2052.793,-123.918,2200.911,-49.347,2319.545C20.067,2429.974,138.792,2499.068,269.22,2497.878" fill="rgba(74, 151, 72, 0.4)" class="triangle-float2"></path><path d="M-388.73 1944.07 a466.4 466.4 0 1 0 932.8 0 a466.4 466.4 0 1 0 -932.8 0z" fill="rgba(74, 151, 72, 0.4)" class="triangle-float3"></path><path d="M-66.19339630568938 1638.5206121350332L-211.7107887090391 2323.126117888624 472.8947170445515 2468.6435102919736 618.4121094479012 1784.038004538383z" fill="rgba(74, 151, 72, 0.4)" class="triangle-float3"></path><path d="M3285.053,2494.623C3414.198,2497.668,3524.576,2405.311,3583.357,2290.279C3637.133,2185.043,3616.454,2063.178,3558.009,1960.461C3498.797,1856.395,3404.514,1774.055,3285.053,1766.011C3150.537,1756.953,3003.915,1800.13,2940.019,1918.848C2878.263,2033.588,2943.176,2164.993,3010.155,2276.765C3074.569,2384.256,3159.774,2491.67,3285.053,2494.623" fill="rgba(74, 151, 72, 0.4)" class="triangle-float1"></path><path d="M3508.534,2911.18C3722.155,2916.991,3951.923,2843.89,4048.136,2653.074C4138.5,2473.859,4023.9,2275.362,3913.715,2107.603C3817.551,1961.191,3683.65,1835.801,3508.534,1831.515C3326.507,1827.06,3163.293,1932.057,3067.48,2086.891C2965.875,2251.084,2926.4,2454.787,3017.495,2625.036C3113.288,2804.064,3305.564,2905.658,3508.534,2911.18" fill="rgba(74, 151, 72, 0.4)" class="triangle-float1"></path><path d="M3371.154,2627.653C3511.697,2622.505,3611.861,2505.441,3678.368,2381.524C3740.573,2265.622,3765.295,2128.481,3700.503,2014.005C3634.849,1898.006,3504.385,1842.701,3371.154,1838.731C3229.538,1834.511,3080.214,1872.647,3005.957,1993.307C2928.703,2118.837,2948.779,2277.814,3022.32,2405.554C3096.034,2533.594,3223.51,2633.061,3371.154,2627.653" fill="rgba(74, 151, 72, 0.4)" class="triangle-float1"></path></g><defs><mask id="SvgjsMask1028"><rect width="3500" height="2333" fill="#ffffff"></rect></mask><style>
                @keyframes float1 {
                    0%{transform: translate(0, 0)}
                    50%{transform: translate(-10px, 0)}
                    100%{transform: translate(0, 0)}
                }

                .triangle-float1 {
                    animation: float1 5s infinite;
                }

                @keyframes float2 {
                    0%{transform: translate(0, 0)}
                    50%{transform: translate(-5px, -5px)}
                    100%{transform: translate(0, 0)}
                }

                .triangle-float2 {
                    animation: float2 4s infinite;
                }

                @keyframes float3 {
                    0%{transform: translate(0, 0)}
                    50%{transform: translate(0, -10px)}
                    100%{transform: translate(0, 0)}
                }

                .triangle-float3 {
                    animation: float3 6s infinite;
                }
            </style></defs></svg>