<svg xmlns="http://www.w3.org/2000/svg" version="1.1" xmlns:xlink="http://www.w3.org/1999/xlink" xmlns:svgjs="http://svgjs.dev/svgjs" width="1440" height="960" preserveAspectRatio="none" viewBox="0 0 1440 960"><g mask="url(&quot;#SvgjsMask1150&quot;)" fill="none"><rect width="1440" height="960" x="0" y="0" fill="#0e2a47"></rect><path d="M84.99 973.27L149.08 1010.27L149.08 1084.27L84.99 1121.27L20.9 1084.27L20.9 1010.27zM149.08 -25.73L213.16 11.27L213.16 85.27L149.08 122.27L84.99 85.27L84.99 11.27zM213.16 85.27L277.25 122.27L277.25 196.27L213.16 233.27L149.08 196.27L149.08 122.27zM341.34 85.27L405.43 122.27L405.43 196.27L341.34 233.27L277.25 196.27L277.25 122.27zM277.25 196.27L341.34 233.27L341.34 307.27L277.25 344.27L213.16 307.27L213.16 233.27zM341.34 973.27L405.43 1010.27L405.43 1084.27L341.34 1121.27L277.25 1084.27L277.25 1010.27zM405.43 640.27L469.51 677.27L469.51 751.27L405.43 788.27L341.34 751.27L341.34 677.27zM469.51 751.27L533.6 788.27L533.6 862.27L469.51 899.27L405.43 862.27L405.43 788.27zM597.69 751.27L661.78 788.27L661.78 862.27L597.69 899.27L533.6 862.27L533.6 788.27zM725.86 307.27L789.95 344.27L789.95 418.27L725.86 455.27L661.78 418.27L661.78 344.27zM725.86 973.27L789.95 1010.27L789.95 1084.27L725.86 1121.27L661.78 1084.27L661.78 1010.27zM789.95 418.27L854.04 455.27L854.04 529.27L789.95 566.27L725.86 529.27L725.86 455.27zM854.04 529.27L918.13 566.27L918.13 640.27L854.04 677.27L789.95 640.27L789.95 566.27zM854.04 751.27L918.13 788.27L918.13 862.27L854.04 899.27L789.95 862.27L789.95 788.27zM789.95 862.27L854.04 899.27L854.04 973.27L789.95 1010.27L725.86 973.27L725.86 899.27zM982.22 85.27L1046.3 122.27L1046.3 196.27L982.22 233.27L918.13 196.27L918.13 122.27zM918.13 640.27L982.22 677.27L982.22 751.27L918.13 788.27L854.04 751.27L854.04 677.27zM982.22 751.27L1046.3 788.27L1046.3 862.27L982.22 899.27L918.13 862.27L918.13 788.27zM1046.3 -25.73L1110.39 11.27L1110.39 85.27L1046.3 122.27L982.22 85.27L982.22 11.27zM1046.3 196.27L1110.39 233.27L1110.39 307.27L1046.3 344.27L982.22 307.27L982.22 233.27zM1046.3 418.27L1110.39 455.27L1110.39 529.27L1046.3 566.27L982.22 529.27L982.22 455.27zM1110.39 751.27L1174.48 788.27L1174.48 862.27L1110.39 899.27L1046.3 862.27L1046.3 788.27zM1046.3 862.27L1110.39 899.27L1110.39 973.27L1046.3 1010.27L982.22 973.27L982.22 899.27zM1174.48 -25.73L1238.57 11.27L1238.57 85.27L1174.48 122.27L1110.39 85.27L1110.39 11.27zM1174.48 196.27L1238.57 233.27L1238.57 307.27L1174.48 344.27L1110.39 307.27L1110.39 233.27zM1238.57 529.27L1302.65 566.27L1302.65 640.27L1238.57 677.27L1174.48 640.27L1174.48 566.27zM1238.57 973.27L1302.65 1010.27L1302.65 1084.27L1238.57 1121.27L1174.48 1084.27L1174.48 1010.27zM1366.74 85.27L1430.83 122.27L1430.83 196.27L1366.74 233.27L1302.65 196.27L1302.65 122.27zM1302.65 196.27L1366.74 233.27L1366.74 307.27L1302.65 344.27L1238.57 307.27L1238.57 233.27zM1302.65 418.27L1366.74 455.27L1366.74 529.27L1302.65 566.27L1238.57 529.27L1238.57 455.27zM1366.74 751.27L1430.83 788.27L1430.83 862.27L1366.74 899.27L1302.65 862.27L1302.65 788.27zM1302.65 862.27L1366.74 899.27L1366.74 973.27L1302.65 1010.27L1238.57 973.27L1238.57 899.27zM1494.92 85.27L1559 122.27L1559 196.27L1494.92 233.27L1430.83 196.27L1430.83 122.27zM1430.83 862.27L1494.92 899.27L1494.92 973.27L1430.83 1010.27L1366.74 973.27L1366.74 899.27zM1494.92 973.27L1559 1010.27L1559 1084.27L1494.92 1121.27L1430.83 1084.27L1430.83 1010.27z" stroke="rgba(3, 53, 93, 1)" stroke-width="2"></path><path d="M77.59 973.27 a7.4 7.4 0 1 0 14.8 0 a7.4 7.4 0 1 0 -14.8 0zM141.68 1010.27 a7.4 7.4 0 1 0 14.8 0 a7.4 7.4 0 1 0 -14.8 0zM141.68 1084.27 a7.4 7.4 0 1 0 14.8 0 a7.4 7.4 0 1 0 -14.8 0zM77.59 1121.27 a7.4 7.4 0 1 0 14.8 0 a7.4 7.4 0 1 0 -14.8 0zM13.5 1084.27 a7.4 7.4 0 1 0 14.8 0 a7.4 7.4 0 1 0 -14.8 0zM13.5 1010.27 a7.4 7.4 0 1 0 14.8 0 a7.4 7.4 0 1 0 -14.8 0zM141.68 -25.73 a7.4 7.4 0 1 0 14.8 0 a7.4 7.4 0 1 0 -14.8 0zM205.76 11.27 a7.4 7.4 0 1 0 14.8 0 a7.4 7.4 0 1 0 -14.8 0zM205.76 85.27 a7.4 7.4 0 1 0 14.8 0 a7.4 7.4 0 1 0 -14.8 0zM141.68 122.27 a7.4 7.4 0 1 0 14.8 0 a7.4 7.4 0 1 0 -14.8 0zM77.59 85.27 a7.4 7.4 0 1 0 14.8 0 a7.4 7.4 0 1 0 -14.8 0zM77.59 11.27 a7.4 7.4 0 1 0 14.8 0 a7.4 7.4 0 1 0 -14.8 0zM269.85 122.27 a7.4 7.4 0 1 0 14.8 0 a7.4 7.4 0 1 0 -14.8 0zM269.85 196.27 a7.4 7.4 0 1 0 14.8 0 a7.4 7.4 0 1 0 -14.8 0zM205.76 233.27 a7.4 7.4 0 1 0 14.8 0 a7.4 7.4 0 1 0 -14.8 0zM141.68 196.27 a7.4 7.4 0 1 0 14.8 0 a7.4 7.4 0 1 0 -14.8 0zM333.94 85.27 a7.4 7.4 0 1 0 14.8 0 a7.4 7.4 0 1 0 -14.8 0zM398.03 122.27 a7.4 7.4 0 1 0 14.8 0 a7.4 7.4 0 1 0 -14.8 0zM398.03 196.27 a7.4 7.4 0 1 0 14.8 0 a7.4 7.4 0 1 0 -14.8 0zM333.94 233.27 a7.4 7.4 0 1 0 14.8 0 a7.4 7.4 0 1 0 -14.8 0zM333.94 307.27 a7.4 7.4 0 1 0 14.8 0 a7.4 7.4 0 1 0 -14.8 0zM269.85 344.27 a7.4 7.4 0 1 0 14.8 0 a7.4 7.4 0 1 0 -14.8 0zM205.76 307.27 a7.4 7.4 0 1 0 14.8 0 a7.4 7.4 0 1 0 -14.8 0zM333.94 973.27 a7.4 7.4 0 1 0 14.8 0 a7.4 7.4 0 1 0 -14.8 0zM398.03 1010.27 a7.4 7.4 0 1 0 14.8 0 a7.4 7.4 0 1 0 -14.8 0zM398.03 1084.27 a7.4 7.4 0 1 0 14.8 0 a7.4 7.4 0 1 0 -14.8 0zM333.94 1121.27 a7.4 7.4 0 1 0 14.8 0 a7.4 7.4 0 1 0 -14.8 0zM269.85 1084.27 a7.4 7.4 0 1 0 14.8 0 a7.4 7.4 0 1 0 -14.8 0zM269.85 1010.27 a7.4 7.4 0 1 0 14.8 0 a7.4 7.4 0 1 0 -14.8 0zM398.03 640.27 a7.4 7.4 0 1 0 14.8 0 a7.4 7.4 0 1 0 -14.8 0zM462.11 677.27 a7.4 7.4 0 1 0 14.8 0 a7.4 7.4 0 1 0 -14.8 0zM462.11 751.27 a7.4 7.4 0 1 0 14.8 0 a7.4 7.4 0 1 0 -14.8 0zM398.03 788.27 a7.4 7.4 0 1 0 14.8 0 a7.4 7.4 0 1 0 -14.8 0zM333.94 751.27 a7.4 7.4 0 1 0 14.8 0 a7.4 7.4 0 1 0 -14.8 0zM333.94 677.27 a7.4 7.4 0 1 0 14.8 0 a7.4 7.4 0 1 0 -14.8 0zM526.2 788.27 a7.4 7.4 0 1 0 14.8 0 a7.4 7.4 0 1 0 -14.8 0zM526.2 862.27 a7.4 7.4 0 1 0 14.8 0 a7.4 7.4 0 1 0 -14.8 0zM462.11 899.27 a7.4 7.4 0 1 0 14.8 0 a7.4 7.4 0 1 0 -14.8 0zM398.03 862.27 a7.4 7.4 0 1 0 14.8 0 a7.4 7.4 0 1 0 -14.8 0zM590.29 751.27 a7.4 7.4 0 1 0 14.8 0 a7.4 7.4 0 1 0 -14.8 0zM654.38 788.27 a7.4 7.4 0 1 0 14.8 0 a7.4 7.4 0 1 0 -14.8 0zM654.38 862.27 a7.4 7.4 0 1 0 14.8 0 a7.4 7.4 0 1 0 -14.8 0zM590.29 899.27 a7.4 7.4 0 1 0 14.8 0 a7.4 7.4 0 1 0 -14.8 0zM718.46 307.27 a7.4 7.4 0 1 0 14.8 0 a7.4 7.4 0 1 0 -14.8 0zM782.55 344.27 a7.4 7.4 0 1 0 14.8 0 a7.4 7.4 0 1 0 -14.8 0zM782.55 418.27 a7.4 7.4 0 1 0 14.8 0 a7.4 7.4 0 1 0 -14.8 0zM718.46 455.27 a7.4 7.4 0 1 0 14.8 0 a7.4 7.4 0 1 0 -14.8 0zM654.38 418.27 a7.4 7.4 0 1 0 14.8 0 a7.4 7.4 0 1 0 -14.8 0zM654.38 344.27 a7.4 7.4 0 1 0 14.8 0 a7.4 7.4 0 1 0 -14.8 0zM718.46 973.27 a7.4 7.4 0 1 0 14.8 0 a7.4 7.4 0 1 0 -14.8 0zM782.55 1010.27 a7.4 7.4 0 1 0 14.8 0 a7.4 7.4 0 1 0 -14.8 0zM782.55 1084.27 a7.4 7.4 0 1 0 14.8 0 a7.4 7.4 0 1 0 -14.8 0zM718.46 1121.27 a7.4 7.4 0 1 0 14.8 0 a7.4 7.4 0 1 0 -14.8 0zM654.38 1084.27 a7.4 7.4 0 1 0 14.8 0 a7.4 7.4 0 1 0 -14.8 0zM654.38 1010.27 a7.4 7.4 0 1 0 14.8 0 a7.4 7.4 0 1 0 -14.8 0zM846.64 455.27 a7.4 7.4 0 1 0 14.8 0 a7.4 7.4 0 1 0 -14.8 0zM846.64 529.27 a7.4 7.4 0 1 0 14.8 0 a7.4 7.4 0 1 0 -14.8 0zM782.55 566.27 a7.4 7.4 0 1 0 14.8 0 a7.4 7.4 0 1 0 -14.8 0zM718.46 529.27 a7.4 7.4 0 1 0 14.8 0 a7.4 7.4 0 1 0 -14.8 0zM910.73 566.27 a7.4 7.4 0 1 0 14.8 0 a7.4 7.4 0 1 0 -14.8 0zM910.73 640.27 a7.4 7.4 0 1 0 14.8 0 a7.4 7.4 0 1 0 -14.8 0zM846.64 677.27 a7.4 7.4 0 1 0 14.8 0 a7.4 7.4 0 1 0 -14.8 0zM782.55 640.27 a7.4 7.4 0 1 0 14.8 0 a7.4 7.4 0 1 0 -14.8 0zM846.64 751.27 a7.4 7.4 0 1 0 14.8 0 a7.4 7.4 0 1 0 -14.8 0zM910.73 788.27 a7.4 7.4 0 1 0 14.8 0 a7.4 7.4 0 1 0 -14.8 0zM910.73 862.27 a7.4 7.4 0 1 0 14.8 0 a7.4 7.4 0 1 0 -14.8 0zM846.64 899.27 a7.4 7.4 0 1 0 14.8 0 a7.4 7.4 0 1 0 -14.8 0zM782.55 862.27 a7.4 7.4 0 1 0 14.8 0 a7.4 7.4 0 1 0 -14.8 0zM782.55 788.27 a7.4 7.4 0 1 0 14.8 0 a7.4 7.4 0 1 0 -14.8 0zM846.64 973.27 a7.4 7.4 0 1 0 14.8 0 a7.4 7.4 0 1 0 -14.8 0zM718.46 899.27 a7.4 7.4 0 1 0 14.8 0 a7.4 7.4 0 1 0 -14.8 0zM974.82 85.27 a7.4 7.4 0 1 0 14.8 0 a7.4 7.4 0 1 0 -14.8 0zM1038.9 122.27 a7.4 7.4 0 1 0 14.8 0 a7.4 7.4 0 1 0 -14.8 0zM1038.9 196.27 a7.4 7.4 0 1 0 14.8 0 a7.4 7.4 0 1 0 -14.8 0zM974.82 233.27 a7.4 7.4 0 1 0 14.8 0 a7.4 7.4 0 1 0 -14.8 0zM910.73 196.27 a7.4 7.4 0 1 0 14.8 0 a7.4 7.4 0 1 0 -14.8 0zM910.73 122.27 a7.4 7.4 0 1 0 14.8 0 a7.4 7.4 0 1 0 -14.8 0zM974.82 677.27 a7.4 7.4 0 1 0 14.8 0 a7.4 7.4 0 1 0 -14.8 0zM974.82 751.27 a7.4 7.4 0 1 0 14.8 0 a7.4 7.4 0 1 0 -14.8 0zM1038.9 788.27 a7.4 7.4 0 1 0 14.8 0 a7.4 7.4 0 1 0 -14.8 0zM1038.9 862.27 a7.4 7.4 0 1 0 14.8 0 a7.4 7.4 0 1 0 -14.8 0zM974.82 899.27 a7.4 7.4 0 1 0 14.8 0 a7.4 7.4 0 1 0 -14.8 0zM1038.9 -25.73 a7.4 7.4 0 1 0 14.8 0 a7.4 7.4 0 1 0 -14.8 0zM1102.99 11.27 a7.4 7.4 0 1 0 14.8 0 a7.4 7.4 0 1 0 -14.8 0zM1102.99 85.27 a7.4 7.4 0 1 0 14.8 0 a7.4 7.4 0 1 0 -14.8 0zM974.82 11.27 a7.4 7.4 0 1 0 14.8 0 a7.4 7.4 0 1 0 -14.8 0zM1102.99 233.27 a7.4 7.4 0 1 0 14.8 0 a7.4 7.4 0 1 0 -14.8 0zM1102.99 307.27 a7.4 7.4 0 1 0 14.8 0 a7.4 7.4 0 1 0 -14.8 0zM1038.9 344.27 a7.4 7.4 0 1 0 14.8 0 a7.4 7.4 0 1 0 -14.8 0zM974.82 307.27 a7.4 7.4 0 1 0 14.8 0 a7.4 7.4 0 1 0 -14.8 0zM1038.9 418.27 a7.4 7.4 0 1 0 14.8 0 a7.4 7.4 0 1 0 -14.8 0zM1102.99 455.27 a7.4 7.4 0 1 0 14.8 0 a7.4 7.4 0 1 0 -14.8 0zM1102.99 529.27 a7.4 7.4 0 1 0 14.8 0 a7.4 7.4 0 1 0 -14.8 0zM1038.9 566.27 a7.4 7.4 0 1 0 14.8 0 a7.4 7.4 0 1 0 -14.8 0zM974.82 529.27 a7.4 7.4 0 1 0 14.8 0 a7.4 7.4 0 1 0 -14.8 0zM974.82 455.27 a7.4 7.4 0 1 0 14.8 0 a7.4 7.4 0 1 0 -14.8 0zM1102.99 751.27 a7.4 7.4 0 1 0 14.8 0 a7.4 7.4 0 1 0 -14.8 0zM1167.08 788.27 a7.4 7.4 0 1 0 14.8 0 a7.4 7.4 0 1 0 -14.8 0zM1167.08 862.27 a7.4 7.4 0 1 0 14.8 0 a7.4 7.4 0 1 0 -14.8 0zM1102.99 899.27 a7.4 7.4 0 1 0 14.8 0 a7.4 7.4 0 1 0 -14.8 0zM1102.99 973.27 a7.4 7.4 0 1 0 14.8 0 a7.4 7.4 0 1 0 -14.8 0zM1038.9 1010.27 a7.4 7.4 0 1 0 14.8 0 a7.4 7.4 0 1 0 -14.8 0zM974.82 973.27 a7.4 7.4 0 1 0 14.8 0 a7.4 7.4 0 1 0 -14.8 0zM1167.08 -25.73 a7.4 7.4 0 1 0 14.8 0 a7.4 7.4 0 1 0 -14.8 0zM1231.17 11.27 a7.4 7.4 0 1 0 14.8 0 a7.4 7.4 0 1 0 -14.8 0zM1231.17 85.27 a7.4 7.4 0 1 0 14.8 0 a7.4 7.4 0 1 0 -14.8 0zM1167.08 122.27 a7.4 7.4 0 1 0 14.8 0 a7.4 7.4 0 1 0 -14.8 0zM1167.08 196.27 a7.4 7.4 0 1 0 14.8 0 a7.4 7.4 0 1 0 -14.8 0zM1231.17 233.27 a7.4 7.4 0 1 0 14.8 0 a7.4 7.4 0 1 0 -14.8 0zM1231.17 307.27 a7.4 7.4 0 1 0 14.8 0 a7.4 7.4 0 1 0 -14.8 0zM1167.08 344.27 a7.4 7.4 0 1 0 14.8 0 a7.4 7.4 0 1 0 -14.8 0zM1231.17 529.27 a7.4 7.4 0 1 0 14.8 0 a7.4 7.4 0 1 0 -14.8 0zM1295.25 566.27 a7.4 7.4 0 1 0 14.8 0 a7.4 7.4 0 1 0 -14.8 0zM1295.25 640.27 a7.4 7.4 0 1 0 14.8 0 a7.4 7.4 0 1 0 -14.8 0zM1231.17 677.27 a7.4 7.4 0 1 0 14.8 0 a7.4 7.4 0 1 0 -14.8 0zM1167.08 640.27 a7.4 7.4 0 1 0 14.8 0 a7.4 7.4 0 1 0 -14.8 0zM1167.08 566.27 a7.4 7.4 0 1 0 14.8 0 a7.4 7.4 0 1 0 -14.8 0zM1231.17 973.27 a7.4 7.4 0 1 0 14.8 0 a7.4 7.4 0 1 0 -14.8 0zM1295.25 1010.27 a7.4 7.4 0 1 0 14.8 0 a7.4 7.4 0 1 0 -14.8 0zM1295.25 1084.27 a7.4 7.4 0 1 0 14.8 0 a7.4 7.4 0 1 0 -14.8 0zM1231.17 1121.27 a7.4 7.4 0 1 0 14.8 0 a7.4 7.4 0 1 0 -14.8 0zM1167.08 1084.27 a7.4 7.4 0 1 0 14.8 0 a7.4 7.4 0 1 0 -14.8 0zM1167.08 1010.27 a7.4 7.4 0 1 0 14.8 0 a7.4 7.4 0 1 0 -14.8 0zM1359.34 85.27 a7.4 7.4 0 1 0 14.8 0 a7.4 7.4 0 1 0 -14.8 0zM1423.43 122.27 a7.4 7.4 0 1 0 14.8 0 a7.4 7.4 0 1 0 -14.8 0zM1423.43 196.27 a7.4 7.4 0 1 0 14.8 0 a7.4 7.4 0 1 0 -14.8 0zM1359.34 233.27 a7.4 7.4 0 1 0 14.8 0 a7.4 7.4 0 1 0 -14.8 0zM1295.25 196.27 a7.4 7.4 0 1 0 14.8 0 a7.4 7.4 0 1 0 -14.8 0zM1295.25 122.27 a7.4 7.4 0 1 0 14.8 0 a7.4 7.4 0 1 0 -14.8 0zM1359.34 307.27 a7.4 7.4 0 1 0 14.8 0 a7.4 7.4 0 1 0 -14.8 0zM1295.25 344.27 a7.4 7.4 0 1 0 14.8 0 a7.4 7.4 0 1 0 -14.8 0zM1295.25 418.27 a7.4 7.4 0 1 0 14.8 0 a7.4 7.4 0 1 0 -14.8 0zM1359.34 455.27 a7.4 7.4 0 1 0 14.8 0 a7.4 7.4 0 1 0 -14.8 0zM1359.34 529.27 a7.4 7.4 0 1 0 14.8 0 a7.4 7.4 0 1 0 -14.8 0zM1231.17 455.27 a7.4 7.4 0 1 0 14.8 0 a7.4 7.4 0 1 0 -14.8 0zM1359.34 751.27 a7.4 7.4 0 1 0 14.8 0 a7.4 7.4 0 1 0 -14.8 0zM1423.43 788.27 a7.4 7.4 0 1 0 14.8 0 a7.4 7.4 0 1 0 -14.8 0zM1423.43 862.27 a7.4 7.4 0 1 0 14.8 0 a7.4 7.4 0 1 0 -14.8 0zM1359.34 899.27 a7.4 7.4 0 1 0 14.8 0 a7.4 7.4 0 1 0 -14.8 0zM1295.25 862.27 a7.4 7.4 0 1 0 14.8 0 a7.4 7.4 0 1 0 -14.8 0zM1295.25 788.27 a7.4 7.4 0 1 0 14.8 0 a7.4 7.4 0 1 0 -14.8 0zM1359.34 973.27 a7.4 7.4 0 1 0 14.8 0 a7.4 7.4 0 1 0 -14.8 0zM1231.17 899.27 a7.4 7.4 0 1 0 14.8 0 a7.4 7.4 0 1 0 -14.8 0zM1487.52 85.27 a7.4 7.4 0 1 0 14.8 0 a7.4 7.4 0 1 0 -14.8 0zM1551.6 122.27 a7.4 7.4 0 1 0 14.8 0 a7.4 7.4 0 1 0 -14.8 0zM1551.6 196.27 a7.4 7.4 0 1 0 14.8 0 a7.4 7.4 0 1 0 -14.8 0zM1487.52 233.27 a7.4 7.4 0 1 0 14.8 0 a7.4 7.4 0 1 0 -14.8 0zM1487.52 899.27 a7.4 7.4 0 1 0 14.8 0 a7.4 7.4 0 1 0 -14.8 0zM1487.52 973.27 a7.4 7.4 0 1 0 14.8 0 a7.4 7.4 0 1 0 -14.8 0zM1423.43 1010.27 a7.4 7.4 0 1 0 14.8 0 a7.4 7.4 0 1 0 -14.8 0zM1551.6 1010.27 a7.4 7.4 0 1 0 14.8 0 a7.4 7.4 0 1 0 -14.8 0zM1551.6 1084.27 a7.4 7.4 0 1 0 14.8 0 a7.4 7.4 0 1 0 -14.8 0zM1487.52 1121.27 a7.4 7.4 0 1 0 14.8 0 a7.4 7.4 0 1 0 -14.8 0zM1423.43 1084.27 a7.4 7.4 0 1 0 14.8 0 a7.4 7.4 0 1 0 -14.8 0z" fill="rgba(3, 53, 93, 1)"></path><path d="M52.64 148.41L113.26 183.41L113.26 253.41L52.64 288.41L-7.98 253.41L-7.98 183.41zM52.64 358.41L113.26 393.41L113.26 463.41L52.64 498.41L-7.98 463.41L-7.98 393.41zM113.26 883.41L173.89 918.41L173.89 988.41L113.26 1023.41L52.64 988.41L52.64 918.41zM173.89 568.41L234.51 603.41L234.51 673.41L173.89 708.41L113.26 673.41L113.26 603.41zM355.76 253.41L416.38 288.41L416.38 358.41L355.76 393.41L295.13 358.41L295.13 288.41zM295.13 568.41L355.76 603.41L355.76 673.41L295.13 708.41L234.51 673.41L234.51 603.41zM295.13 778.41L355.76 813.41L355.76 883.41L295.13 918.41L234.51 883.41L234.51 813.41zM355.76 883.41L416.38 918.41L416.38 988.41L355.76 1023.41L295.13 988.41L295.13 918.41zM477 463.41L537.63 498.41L537.63 568.41L477 603.41L416.38 568.41L416.38 498.41zM416.38 568.41L477 603.41L477 673.41L416.38 708.41L355.76 673.41L355.76 603.41zM416.38 778.41L477 813.41L477 883.41L416.38 918.41L355.76 883.41L355.76 813.41zM477 883.41L537.63 918.41L537.63 988.41L477 1023.41L416.38 988.41L416.38 918.41zM598.25 43.41L658.88 78.41L658.88 148.41L598.25 183.41L537.63 148.41L537.63 78.41zM598.25 253.41L658.88 288.41L658.88 358.41L598.25 393.41L537.63 358.41L537.63 288.41zM598.25 463.41L658.88 498.41L658.88 568.41L598.25 603.41L537.63 568.41L537.63 498.41zM537.63 568.41L598.25 603.41L598.25 673.41L537.63 708.41L477 673.41L477 603.41zM598.25 883.41L658.88 918.41L658.88 988.41L598.25 1023.41L537.63 988.41L537.63 918.41zM719.5 253.41L780.12 288.41L780.12 358.41L719.5 393.41L658.88 358.41L658.88 288.41zM719.5 673.41L780.12 708.41L780.12 778.41L719.5 813.41L658.88 778.41L658.88 708.41zM658.88 778.41L719.5 813.41L719.5 883.41L658.88 918.41L598.25 883.41L598.25 813.41zM780.12 358.41L840.75 393.41L840.75 463.41L780.12 498.41L719.5 463.41L719.5 393.41zM840.75 463.41L901.37 498.41L901.37 568.41L840.75 603.41L780.12 568.41L780.12 498.41zM780.12 568.41L840.75 603.41L840.75 673.41L780.12 708.41L719.5 673.41L719.5 603.41zM780.12 778.41L840.75 813.41L840.75 883.41L780.12 918.41L719.5 883.41L719.5 813.41zM840.75 883.41L901.37 918.41L901.37 988.41L840.75 1023.41L780.12 988.41L780.12 918.41zM901.37 148.41L961.99 183.41L961.99 253.41L901.37 288.41L840.75 253.41L840.75 183.41zM901.37 568.41L961.99 603.41L961.99 673.41L901.37 708.41L840.75 673.41L840.75 603.41zM961.99 673.41L1022.62 708.41L1022.62 778.41L961.99 813.41L901.37 778.41L901.37 708.41zM1022.62 148.41L1083.24 183.41L1083.24 253.41L1022.62 288.41L961.99 253.41L961.99 183.41zM1083.24 253.41L1143.86 288.41L1143.86 358.41L1083.24 393.41L1022.62 358.41L1022.62 288.41zM1083.24 463.41L1143.86 498.41L1143.86 568.41L1083.24 603.41L1022.62 568.41L1022.62 498.41zM1022.62 568.41L1083.24 603.41L1083.24 673.41L1022.62 708.41L961.99 673.41L961.99 603.41zM1083.24 673.41L1143.86 708.41L1143.86 778.41L1083.24 813.41L1022.62 778.41L1022.62 708.41zM1022.62 778.41L1083.24 813.41L1083.24 883.41L1022.62 918.41L961.99 883.41L961.99 813.41zM1204.49 43.41L1265.11 78.41L1265.11 148.41L1204.49 183.41L1143.86 148.41L1143.86 78.41zM1204.49 253.41L1265.11 288.41L1265.11 358.41L1204.49 393.41L1143.86 358.41L1143.86 288.41zM1143.86 358.41L1204.49 393.41L1204.49 463.41L1143.86 498.41L1083.24 463.41L1083.24 393.41zM1143.86 568.41L1204.49 603.41L1204.49 673.41L1143.86 708.41L1083.24 673.41L1083.24 603.41zM1265.11 148.41L1325.73 183.41L1325.73 253.41L1265.11 288.41L1204.49 253.41L1204.49 183.41zM1325.73 463.41L1386.36 498.41L1386.36 568.41L1325.73 603.41L1265.11 568.41L1265.11 498.41zM1265.11 778.41L1325.73 813.41L1325.73 883.41L1265.11 918.41L1204.49 883.41L1204.49 813.41zM1446.98 43.41L1507.6 78.41L1507.6 148.41L1446.98 183.41L1386.36 148.41L1386.36 78.41zM1386.36 148.41L1446.98 183.41L1446.98 253.41L1386.36 288.41L1325.73 253.41L1325.73 183.41zM1446.98 253.41L1507.6 288.41L1507.6 358.41L1446.98 393.41L1386.36 358.41L1386.36 288.41zM1386.36 358.41L1446.98 393.41L1446.98 463.41L1386.36 498.41L1325.73 463.41L1325.73 393.41zM1386.36 778.41L1446.98 813.41L1446.98 883.41L1386.36 918.41L1325.73 883.41L1325.73 813.41z" stroke="rgba(6, 156, 94, 0.93)" stroke-width="2"></path></g><defs><mask id="SvgjsMask1150"><rect width="1440" height="960" fill="#ffffff"></rect></mask></defs></svg>