<?xml version="1.0" encoding="UTF-8"?>
<svg version="1.1" xmlns="http://www.w3.org/2000/svg" width="597" height="785">
<path d="M0 0 C3.97915159 -0.02886984 7.95827653 -0.04675406 11.9375 -0.0625 C13.07380859 -0.07087891 14.21011719 -0.07925781 15.38085938 -0.08789062 C16.46044922 -0.09111328 17.54003906 -0.09433594 18.65234375 -0.09765625 C20.15269165 -0.10551147 20.15269165 -0.10551147 21.68334961 -0.11352539 C24 0 24 0 25 1 C27.01311449 1.39569108 29.03597208 1.74252191 31.0625 2.0625 C32.16722656 2.23910156 33.27195312 2.41570312 34.41015625 2.59765625 C35.26480469 2.73042969 36.11945313 2.86320313 37 3 C37 3.66 37 4.32 37 5 C39.31 5.33 41.62 5.66 44 6 C44 6.66 44 7.32 44 8 C45.98 8.33 47.96 8.66 50 9 C50 9.66 50 10.32 50 11 C51.98 11.495 51.98 11.495 54 12 C54 12.66 54 13.32 54 14 C54.7425 14.061875 55.485 14.12375 56.25 14.1875 C59.87017367 15.25709677 60.77383898 17.00859613 63 20 C63.886875 20.680625 64.77375 21.36125 65.6875 22.0625 C68.10394436 24.08708852 68.67140682 24.93313028 69 28 C69.66 28 70.32 28 71 28 C75 33.29411765 75 33.29411765 75 37 C75.66 37 76.32 37 77 37 C77.33 38.98 77.66 40.96 78 43 C78.66 43 79.32 43 80 43 C80.33 45.64 80.66 48.28 81 51 C81.66 51 82.32 51 83 51 C83.13277344 51.99902344 83.26554688 52.99804688 83.40234375 54.02734375 C83.57894531 55.31769531 83.75554688 56.60804688 83.9375 57.9375 C84.11152344 59.22527344 84.28554688 60.51304687 84.46484375 61.83984375 C84.66162423 64.85466313 84.66162423 64.85466313 86 66 C86.07271741 68.35313555 86.08370868 70.70833668 86.0625 73.0625 C86.05347656 74.35285156 86.04445313 75.64320313 86.03515625 76.97265625 C86.01775391 78.47119141 86.01775391 78.47119141 86 80 C85.34 80 84.68 80 84 80 C84.01160156 80.73605469 84.02320313 81.47210938 84.03515625 82.23046875 C84.04869141 83.69419922 84.04869141 83.69419922 84.0625 85.1875 C84.07410156 86.15042969 84.08570313 87.11335938 84.09765625 88.10546875 C84.00486622 90.85576513 83.62111685 93.32479591 83 96 C82.34 96 81.68 96 81 96 C80.67 98.64 80.34 101.28 80 104 C79.34 104 78.68 104 78 104 C77.67 105.98 77.34 107.96 77 110 C76.34 110 75.68 110 75 110 C74.67 111.32 74.34 112.64 74 114 C73.34 114 72.68 114 72 114 C71.938125 114.7425 71.87625 115.485 71.8125 116.25 C70.74290323 119.87017367 68.99140387 120.77383898 66 123 C65.360625 123.804375 64.72125 124.60875 64.0625 125.4375 C61.61143157 128.48276683 59.11099504 130.63293855 56 133 C55.34 133 54.68 133 54 133 C53.6596875 134.11375 53.6596875 134.11375 53.3125 135.25 C51.73336584 138.55866205 49.8945294 139.79464426 47 142 C46.34 142.825 45.68 143.65 45 144.5 C42.89635814 147.12955233 40.66113666 148.9529718 38 151 C35.62112149 153.12399867 35.0446753 153.86597409 34 157 C33.34 157 32.68 157 32 157 C31.67 157.99 31.34 158.98 31 160 C30.34 160 29.68 160 29 160 C28.67 160.99 28.34 161.98 28 163 C26.34211215 164.34423339 24.67423683 165.67618483 23 167 C21.64172029 168.64639965 20.30745749 170.31295807 19 172 C16.875 174.3125 16.875 174.3125 15 176 C14.34 176 13.68 176 13 176 C12.67 176.99 12.34 177.98 12 179 C11.34 179 10.68 179 10 179 C9.67 179.99 9.34 180.98 9 182 C8.34 182 7.68 182 7 182 C6.67 182.99 6.34 183.98 6 185 C5.34 185 4.68 185 4 185 C3.67 185.99 3.34 186.98 3 188 C2.34 188 1.68 188 1 188 C0.67 188.99 0.34 189.98 0 191 C-0.66 191 -1.32 191 -2 191 C-2.33 191.99 -2.66 192.98 -3 194 C-3.66 194 -4.32 194 -5 194 C-5.33 194.99 -5.66 195.98 -6 197 C-6.66 197 -7.32 197 -8 197 C-8.33 197.99 -8.66 198.98 -9 200 C-9.66 200 -10.32 200 -11 200 C-11.33 200.99 -11.66 201.98 -12 203 C-13.65002828 204.35386936 -15.3174387 205.68678142 -17 207 C-17.66 207.99 -18.32 208.98 -19 210 C-19.66 210 -20.32 210 -21 210 C-21.33 210.99 -21.66 211.98 -22 213 C-22.66 213 -23.32 213 -24 213 C-24.33 213.99 -24.66 214.98 -25 216 C-25.66 216 -26.32 216 -27 216 C-27.33 216.99 -27.66 217.98 -28 219 C-28.66 219 -29.32 219 -30 219 C-30.33 219.99 -30.66 220.98 -31 222 C-31.66 222 -32.32 222 -33 222 C-33.33 222.99 -33.66 223.98 -34 225 C-34.66 225 -35.32 225 -36 225 C-36.33 225.99 -36.66 226.98 -37 228 C-37.66 228 -38.32 228 -39 228 C-39.33 228.99 -39.66 229.98 -40 231 C-40.66 231 -41.32 231 -42 231 C-42.33 231.99 -42.66 232.98 -43 234 C-43.66 234 -44.32 234 -45 234 C-45.33 234.99 -45.66 235.98 -46 237 C-46.66 237 -47.32 237 -48 237 C-48.33 237.99 -48.66 238.98 -49 240 C-50.9375 242.1875 -50.9375 242.1875 -53 244 C-53.66 244 -54.32 244 -55 244 C-55.33 244.99 -55.66 245.98 -56 247 C-56.66 247 -57.32 247 -58 247 C-58.33 247.99 -58.66 248.98 -59 250 C-59.66 250 -60.32 250 -61 250 C-61.33 250.99 -61.66 251.98 -62 253 C-62.66 253 -63.32 253 -64 253 C-64.33 253.99 -64.66 254.98 -65 256 C-65.66 256 -66.32 256 -67 256 C-67.41870553 258.33071879 -67.41870553 258.33071879 -67 261 C-64.73219193 263.08140833 -64.73219193 263.08140833 -62 265 C-60.66666667 266.66666667 -59.33333333 268.33333333 -58 270 C-57.195625 270.639375 -56.39125 271.27875 -55.5625 271.9375 C-52.59303163 274.32755991 -50.43669344 277.07596788 -48 280 C-46.33729713 281.33827304 -44.67083819 282.67189785 -43 284 C-41.66666667 285.66666667 -40.33333333 287.33333333 -39 289 C-38.175 289.66 -37.35 290.32 -36.5 291 C-33.87100457 293.10319635 -32.09680365 295.37899543 -30 298 C-28.34466005 299.34736973 -26.67987227 300.68334336 -25 302 C-24.67 302.66 -24.34 303.32 -24 304 C-23.01 304.33 -22.02 304.66 -21 305 C-21 305.66 -21 306.32 -21 307 C-20.01 307.33 -19.02 307.66 -18 308 C-16.65576661 309.65788785 -15.32381517 311.32576317 -14 313 C-12.35360035 314.35827971 -10.68704193 315.69254251 -9 317 C-6.6875 319.125 -6.6875 319.125 -5 321 C-5 321.66 -5 322.32 -5 323 C-4.01 323.33 -3.02 323.66 -2 324 C-2 324.66 -2 325.32 -2 326 C-1.01 326.33 -0.02 326.66 1 327 C1 327.66 1 328.32 1 329 C1.99 329.33 2.98 329.66 4 330 C4 330.66 4 331.32 4 332 C4.99 332.33 5.98 332.66 7 333 C7 333.66 7 334.32 7 335 C7.99 335.33 8.98 335.66 10 336 C10 336.66 10 337.32 10 338 C10.99 338.33 11.98 338.66 13 339 C13 339.66 13 340.32 13 341 C13.99 341.33 14.98 341.66 16 342 C17.33895632 343.66215268 18.67130142 345.32963607 20 347 C21.06454938 347.91807575 22.1485124 348.81408513 23.25 349.6875 C24.1575 350.450625 25.065 351.21375 26 352 C26 352.66 26 353.32 26 354 C26.99 354.33 27.98 354.66 29 355 C29 355.66 29 356.32 29 357 C29.99 357.33 30.98 357.66 32 358 C32 358.66 32 359.32 32 360 C32.99 360.33 33.98 360.66 35 361 C35 361.66 35 362.32 35 363 C35.99 363.33 36.98 363.66 38 364 C38 364.66 38 365.32 38 366 C38.99 366.33 39.98 366.66 41 367 C41 367.66 41 368.32 41 369 C41.99 369.33 42.98 369.66 44 370 C44 370.66 44 371.32 44 372 C44.99 372.33 45.98 372.66 47 373 C47 373.66 47 374.32 47 375 C47.99 375.33 48.98 375.66 50 376 C50 376.66 50 377.32 50 378 C50.99 378.33 51.98 378.66 53 379 C54.35386936 380.65002828 55.68678142 382.3174387 57 384 C57.99 384.66 58.98 385.32 60 386 C60 386.66 60 387.32 60 388 C60.99 388.33 61.98 388.66 63 389 C63 389.66 63 390.32 63 391 C63.99 391.33 64.98 391.66 66 392 C66 392.66 66 393.32 66 394 C66.99 394.33 67.98 394.66 69 395 C69 395.66 69 396.32 69 397 C69.99 397.33 70.98 397.66 72 398 C72 398.99 72 399.98 72 401 C72.66 401 73.32 401 74 401 C74.33 402.65 74.66 404.3 75 406 C75.99 406.33 76.98 406.66 78 407 C78 407.99 78 408.98 78 410 C78.66 410 79.32 410 80 410 C80.33 412.64 80.66 415.28 81 418 C81.66 418 82.32 418 83 418 C83.48937429 419.32962072 83.96583581 420.66399425 84.4375 422 C84.83775391 423.11375 84.83775391 423.11375 85.24609375 424.25 C87.07515391 430.92180494 87.15807051 437.63235733 87.125 444.5 C87.12886719 445.30308594 87.13273438 446.10617187 87.13671875 446.93359375 C87.12843919 452.04208356 86.7306148 456.9436817 86 462 C85.34 462 84.68 462 84 462 C83.67 465.3 83.34 468.6 83 472 C82.34 472 81.68 472 81 472 C80.67 473.98 80.34 475.96 80 478 C79.34 478 78.68 478 78 478 C77.67 479.98 77.34 481.96 77 484 C76.34 484 75.68 484 75 484 C74.67 485.32 74.34 486.64 74 488 C73.34 488 72.68 488 72 488 C71.67 488.99 71.34 489.98 71 491 C70.34 491 69.68 491 69 491 C68.67 491.99 68.34 492.98 68 494 C67.34 494 66.68 494 66 494 C65.67 494.99 65.34 495.98 65 497 C64.34 497 63.68 497 63 497 C62.67 497.99 62.34 498.98 62 500 C61.34 500 60.68 500 60 500 C59.67 500.99 59.34 501.98 59 503 C58.34 503 57.68 503 57 503 C57 503.66 57 504.32 57 505 C56.01 505.33 55.02 505.66 54 506 C53.67 506.66 53.34 507.32 53 508 C49.9375 508.625 49.9375 508.625 47 509 C47 509.66 47 510.32 47 511 C44.69 511.33 42.38 511.66 40 512 C40 512.66 40 513.32 40 514 C36.37 514.33 32.74 514.66 29 515 C29 515.66 29 516.32 29 517 C24.85572898 517.04976954 20.71162047 517.08589288 16.56713867 517.10986328 C15.15988124 517.11986557 13.7526443 517.13347178 12.34545898 517.15087891 C10.31228552 517.17538366 8.27938894 517.18654083 6.24609375 517.1953125 C4.41582642 517.21102295 4.41582642 517.21102295 2.54858398 517.22705078 C-1.22412322 516.98565981 -4.40917866 516.15246048 -8 515 C-9.33130115 514.65864073 -10.66358148 514.32074044 -12 514 C-12 513.34 -12 512.68 -12 512 C-14.31 511.67 -16.62 511.34 -19 511 C-19 510.34 -19 509.68 -19 509 C-20.65 508.67 -22.3 508.34 -24 508 C-24 507.34 -24 506.68 -24 506 C-25.32 505.67 -26.64 505.34 -28 505 C-28 504.34 -28 503.68 -28 503 C-28.7425 502.938125 -29.485 502.87625 -30.25 502.8125 C-33.87017367 501.74290323 -34.77383898 499.99140387 -37 497 C-38.64639965 495.64172029 -40.31295807 494.30745749 -42 493 C-44.3125 490.875 -44.3125 490.875 -46 489 C-46 488.34 -46 487.68 -46 487 C-46.99 486.67 -47.98 486.34 -49 486 C-50.34423339 484.34211215 -51.67618483 482.67423683 -53 481 C-53.825 480.34 -54.65 479.68 -55.5 479 C-58.12899543 476.89680365 -59.90319635 474.62100457 -62 472 C-62.9075 471.278125 -63.815 470.55625 -64.75 469.8125 C-65.4925 469.214375 -66.235 468.61625 -67 468 C-67 467.34 -67 466.68 -67 466 C-68.32 465.67 -69.64 465.34 -71 465 C-71 464.34 -71 463.68 -71 463 C-71.99 462.67 -72.98 462.34 -74 462 C-74 461.34 -74 460.68 -74 460 C-74.99 459.67 -75.98 459.34 -77 459 C-77 458.34 -77 457.68 -77 457 C-77.99 456.67 -78.98 456.34 -80 456 C-80 455.34 -80 454.68 -80 454 C-80.99 453.67 -81.98 453.34 -83 453 C-85.1875 451.0625 -85.1875 451.0625 -87 449 C-87 448.34 -87 447.68 -87 447 C-87.99 446.67 -88.98 446.34 -90 446 C-90 445.34 -90 444.68 -90 444 C-90.99 443.67 -91.98 443.34 -93 443 C-93 442.34 -93 441.68 -93 441 C-93.99 440.67 -94.98 440.34 -96 440 C-96 439.34 -96 438.68 -96 438 C-96.99 437.67 -97.98 437.34 -99 437 C-99 436.34 -99 435.68 -99 435 C-99.99 434.67 -100.98 434.34 -102 434 C-102 433.34 -102 432.68 -102 432 C-102.99 431.67 -103.98 431.34 -105 431 C-105 430.34 -105 429.68 -105 429 C-105.99 428.67 -106.98 428.34 -108 428 C-108 427.34 -108 426.68 -108 426 C-108.99 425.67 -109.98 425.34 -111 425 C-111 424.34 -111 423.68 -111 423 C-111.99 422.67 -112.98 422.34 -114 422 C-114 421.34 -114 420.68 -114 420 C-114.598125 419.731875 -115.19625 419.46375 -115.8125 419.1875 C-117.99847854 418.00082594 -119.41332594 416.90400887 -121 415 C-121 414.34 -121 413.68 -121 413 C-121.99 412.67 -122.98 412.34 -124 412 C-124 411.34 -124 410.68 -124 410 C-124.99 409.67 -125.98 409.34 -127 409 C-127 408.34 -127 407.68 -127 407 C-127.99 406.67 -128.98 406.34 -130 406 C-130 405.34 -130 404.68 -130 404 C-130.99 403.67 -131.98 403.34 -133 403 C-133 402.34 -133 401.68 -133 401 C-133.99 400.67 -134.98 400.34 -136 400 C-136 399.34 -136 398.68 -136 398 C-136.99 397.67 -137.98 397.34 -139 397 C-139 396.34 -139 395.68 -139 395 C-139.99 394.67 -140.98 394.34 -142 394 C-142 393.34 -142 392.68 -142 392 C-142.99 391.67 -143.98 391.34 -145 391 C-145 390.34 -145 389.68 -145 389 C-145.99 388.67 -146.98 388.34 -148 388 C-148 387.34 -148 386.68 -148 386 C-148.99 385.67 -149.98 385.34 -151 385 C-151 384.34 -151 383.68 -151 383 C-152.32 382.34 -153.64 381.68 -155 381 C-155 380.34 -155 379.68 -155 379 C-155.99 378.67 -156.98 378.34 -158 378 C-158 377.34 -158 376.68 -158 376 C-158.99 375.67 -159.98 375.34 -161 375 C-161 374.34 -161 373.68 -161 373 C-161.99 372.67 -162.98 372.34 -164 372 C-164 371.34 -164 370.68 -164 370 C-164.99 369.67 -165.98 369.34 -167 369 C-167 368.34 -167 367.68 -167 367 C-167.99 366.67 -168.98 366.34 -170 366 C-170 365.34 -170 364.68 -170 364 C-170.99 364 -171.98 364 -173 364 C-173 364.66 -173 365.32 -173 366 C-174.66215268 367.33895632 -176.32963607 368.67130142 -178 370 C-178.99 371.2375 -178.99 371.2375 -180 372.5 C-182.11041721 375.13802151 -184.34322642 376.92642062 -187 379 C-189.86166082 381.71490898 -192.47446212 384.53960555 -195 387.5625 C-197.42742728 390.44429187 -200.03916447 392.66249826 -203 395 C-203.99 396.2375 -203.99 396.2375 -205 397.5 C-207.10319635 400.12899543 -209.37899543 401.90319635 -212 404 C-212.99 405.2375 -212.99 405.2375 -214 406.5 C-216 409 -216 409 -218.4375 410.9375 C-221.15604996 412.98692404 -221.15604996 412.98692404 -223.5 416 C-225.8306426 418.79677112 -228.16749625 420.74852266 -231 423 C-231.99 424.2375 -231.99 424.2375 -233 425.5 C-235.10319635 428.12899543 -237.37899543 429.90319635 -240 432 C-240.99 433.2375 -240.99 433.2375 -242 434.5 C-244.10319635 437.12899543 -246.37899543 438.90319635 -249 441 C-249.99 442.2375 -249.99 442.2375 -251 443.5 C-253.09741927 446.12177409 -255.37437055 447.92713465 -258 450 C-258.66 450.99 -259.32 451.98 -260 453 C-260.66 453 -261.32 453 -262 453 C-262.33 453.99 -262.66 454.98 -263 456 C-264.65788785 457.34423339 -266.32576317 458.67618483 -268 460 C-268.99 461.2375 -268.99 461.2375 -270 462.5 C-272.10319635 465.12899543 -274.37899543 466.90319635 -277 469 C-277.99 470.2375 -277.99 470.2375 -279 471.5 C-281.10319635 474.12899543 -283.37899543 475.90319635 -286 478 C-286.99 479.2375 -286.99 479.2375 -288 480.5 C-290.09741927 483.12177409 -292.37437055 484.92713465 -295 487 C-295.66 487.99 -296.32 488.98 -297 490 C-297.66 490 -298.32 490 -299 490 C-299.33 491.32 -299.66 492.64 -300 494 C-300.66 494 -301.32 494 -302 494 C-302.33 494.99 -302.66 495.98 -303 497 C-303.66 497 -304.32 497 -305 497 C-305.33 497.99 -305.66 498.98 -306 500 C-306.99 500 -307.98 500 -309 500 C-309 500.66 -309 501.32 -309 502 C-313.35294118 506 -313.35294118 506 -317 506 C-317.33 506.99 -317.66 507.98 -318 509 C-318.99 509 -319.98 509 -321 509 C-321 509.66 -321 510.32 -321 511 C-322.98 511.33 -324.96 511.66 -327 512 C-327 512.66 -327 513.32 -327 514 C-329.97 514.33 -332.94 514.66 -336 515 C-336 515.66 -336 516.32 -336 517 C-339.46222615 518.06723961 -342.64039266 518.10173486 -346.25 518.0625 C-347.32765625 518.05347656 -348.4053125 518.04445313 -349.515625 518.03515625 C-350.33546875 518.02355469 -351.1553125 518.01195312 -352 518 C-352 518.66 -352 519.32 -352 520 C-355.3 520 -358.6 520 -362 520 C-362 519.34 -362 518.68 -362 518 C-362.80824219 518.01160156 -363.61648438 518.02320313 -364.44921875 518.03515625 C-366.05216797 518.04869141 -366.05216797 518.04869141 -367.6875 518.0625 C-369.27111328 518.07990234 -369.27111328 518.07990234 -370.88671875 518.09765625 C-373.72410262 518.00865425 -376.2438919 517.64939838 -379 517 C-379 516.34 -379 515.68 -379 515 C-380.093125 514.95875 -381.18625 514.9175 -382.3125 514.875 C-388.21959587 514.18566206 -392.9865154 511.01362034 -398 508 C-398 507.34 -398 506.68 -398 506 C-399.32 505.67 -400.64 505.34 -402 505 C-402 504.34 -402 503.68 -402 503 C-402.99 502.67 -403.98 502.34 -405 502 C-405 501.34 -405 500.68 -405 500 C-405.99 499.67 -406.98 499.34 -408 499 C-408 498.34 -408 497.68 -408 497 C-408.99 496.67 -409.98 496.34 -411 496 C-411 495.34 -411 494.68 -411 494 C-411.99 493.67 -412.98 493.34 -414 493 C-414 492.34 -414 491.68 -414 491 C-414.99 490.67 -415.98 490.34 -417 490 C-417 489.01 -417 488.02 -417 487 C-417.66 487 -418.32 487 -419 487 C-423 480.375 -423 480.375 -423 477 C-423.66 477 -424.32 477 -425 477 C-425.33 474.36 -425.66 471.72 -426 469 C-426.66 469 -427.32 469 -428 469 C-428.13277344 467.92878906 -428.26554687 466.85757812 -428.40234375 465.75390625 C-428.5805056 464.35674231 -428.75890319 462.95960841 -428.9375 461.5625 C-429.02451172 460.85544922 -429.11152344 460.14839844 -429.20117188 459.41992188 C-429.38216191 455.91182032 -429.38216191 455.91182032 -431 453 C-431.09909302 450.66839945 -431.12970504 448.33370058 -431.125 446 C-431.12757813 444.72125 -431.13015625 443.4425 -431.1328125 442.125 C-431 439 -431 439 -430 438 C-429.67422668 435.81731875 -429.38986047 433.62840726 -429.125 431.4375 C-428.37147225 425.84883583 -427.26503495 421.14780669 -425 416 C-424.34 416 -423.68 416 -423 416 C-422.67 414.02 -422.34 412.04 -422 410 C-421.34 410 -420.68 410 -420 410 C-419.896875 409.2575 -419.79375 408.515 -419.6875 407.75 C-418.95066203 404.8026481 -418.05200858 403.21616926 -416 401 C-415.34 401 -414.68 401 -414 401 C-413.67 399.68 -413.34 398.36 -413 397 C-412.34 397 -411.68 397 -411 397 C-410.67 396.01 -410.34 395.02 -410 394 C-409.34 394 -408.68 394 -408 394 C-407.67 393.01 -407.34 392.02 -407 391 C-406.34 391 -405.68 391 -405 391 C-404.67 390.01 -404.34 389.02 -404 388 C-403.34 388 -402.68 388 -402 388 C-401.67 387.01 -401.34 386.02 -401 385 C-399.0625 382.8125 -399.0625 382.8125 -397 381 C-396.34 381 -395.68 381 -395 381 C-394.67 380.01 -394.34 379.02 -394 378 C-393.34 378 -392.68 378 -392 378 C-391.67 377.01 -391.34 376.02 -391 375 C-390.34 375 -389.68 375 -389 375 C-388.67 374.01 -388.34 373.02 -388 372 C-387.34 372 -386.68 372 -386 372 C-385.67 371.01 -385.34 370.02 -385 369 C-384.34 369 -383.68 369 -383 369 C-382.67 368.01 -382.34 367.02 -382 366 C-381.34 366 -380.68 366 -380 366 C-379.67 365.01 -379.34 364.02 -379 363 C-378.34 363 -377.68 363 -377 363 C-376.67 362.01 -376.34 361.02 -376 360 C-375.34 360 -374.68 360 -374 360 C-373.67 359.01 -373.34 358.02 -373 357 C-372.34 357 -371.68 357 -371 357 C-370.67 356.01 -370.34 355.02 -370 354 C-369.34 354 -368.68 354 -368 354 C-367.67 353.01 -367.34 352.02 -367 351 C-366.34 351 -365.68 351 -365 351 C-364.34 349.68 -363.68 348.36 -363 347 C-362.34 347 -361.68 347 -361 347 C-360.67 346.01 -360.34 345.02 -360 344 C-359.34 344 -358.68 344 -358 344 C-357.67 343.01 -357.34 342.02 -357 341 C-356.34 341 -355.68 341 -355 341 C-354.67 340.01 -354.34 339.02 -354 338 C-353.34 338 -352.68 338 -352 338 C-351.67 337.01 -351.34 336.02 -351 335 C-350.34 335 -349.68 335 -349 335 C-348.67 334.01 -348.34 333.02 -348 332 C-347.34 332 -346.68 332 -346 332 C-345.67 331.01 -345.34 330.02 -345 329 C-344.34 329 -343.68 329 -343 329 C-342.67 328.01 -342.34 327.02 -342 326 C-341.34 326 -340.68 326 -340 326 C-339.67 325.01 -339.34 324.02 -339 323 C-338.34 323 -337.68 323 -337 323 C-336.67 322.01 -336.34 321.02 -336 320 C-335.34 320 -334.68 320 -334 320 C-333.67 319.01 -333.34 318.02 -333 317 C-332.34 317 -331.68 317 -331 317 C-330.34 315.68 -329.68 314.36 -329 313 C-328.34 313 -327.68 313 -327 313 C-326.67 312.01 -326.34 311.02 -326 310 C-325.34 310 -324.68 310 -324 310 C-323.67 309.01 -323.34 308.02 -323 307 C-322.34 307 -321.68 307 -321 307 C-320.67 306.01 -320.34 305.02 -320 304 C-319.34 304 -318.68 304 -318 304 C-317.67 303.01 -317.34 302.02 -317 301 C-316.34 301 -315.68 301 -315 301 C-314.67 300.01 -314.34 299.02 -314 298 C-313.34 298 -312.68 298 -312 298 C-311.67 297.01 -311.34 296.02 -311 295 C-310.34 295 -309.68 295 -309 295 C-308.67 294.01 -308.34 293.02 -308 292 C-307.34 292 -306.68 292 -306 292 C-305.67 291.01 -305.34 290.02 -305 289 C-304.34 289 -303.68 289 -303 289 C-302.67 288.01 -302.34 287.02 -302 286 C-301.34 286 -300.68 286 -300 286 C-299.67 285.01 -299.34 284.02 -299 283 C-298.34 283 -297.68 283 -297 283 C-296.67 282.01 -296.34 281.02 -296 280 C-295.34 280 -294.68 280 -294 280 C-293.67 278.68 -293.34 277.36 -293 276 C-292.34 276 -291.68 276 -291 276 C-290.78601563 275.45601562 -290.57203125 274.91203125 -290.3515625 274.3515625 C-288.52821508 271.17914878 -286.0046765 268.87119039 -283.375 266.375 C-281.52792799 264.62028159 -279.75602961 262.84999775 -278 261 C-278 260.34 -278 259.68 -278 259 C-279.66215268 257.66104368 -281.32963607 256.32869858 -283 255 C-284.35386936 253.34997172 -285.68678142 251.6825613 -287 250 C-288.299375 248.7315625 -288.299375 248.7315625 -289.625 247.4375 C-292 245 -292 245 -293.0625 242.8125 C-294.29444536 240.43073896 -295.61895804 240.17114541 -298 239 C-302.30006843 235.78437866 -305.67741702 232.2086051 -309 228 C-309.825 227.34 -310.65 226.68 -311.5 226 C-314.12899543 223.89680365 -315.90319635 221.62100457 -318 219 C-318.804375 218.360625 -319.60875 217.72125 -320.4375 217.0625 C-323.48276683 214.61143157 -325.63293855 212.11099504 -328 209 C-328 208.34 -328 207.68 -328 207 C-328.99 206.67 -329.98 206.34 -331 206 C-331 205.34 -331 204.68 -331 204 C-332.11375 203.6596875 -332.11375 203.6596875 -333.25 203.3125 C-336.55866205 201.73336584 -337.79464426 199.8945294 -340 197 C-340.825 196.34 -341.65 195.68 -342.5 195 C-345.12899543 192.89680365 -346.90319635 190.62100457 -349 188 C-349.825 187.34 -350.65 186.68 -351.5 186 C-354.12899543 183.89680365 -355.90319635 181.62100457 -358 179 C-358.86625 178.34 -359.7325 177.68 -360.625 177 C-363 175 -363 175 -364 172.375 C-364.77083333 169.77083333 -364.77083333 169.77083333 -367.375 169 C-368.24125 168.67 -369.1075 168.34 -370 168 C-371.37482707 166.36739286 -372.70647667 164.69774938 -374 163 C-374.825 162.34 -375.65 161.68 -376.5 161 C-379.12899543 158.89680365 -380.90319635 156.62100457 -383 154 C-383.825 153.34 -384.65 152.68 -385.5 152 C-388.12899543 149.89680365 -389.90319635 147.62100457 -392 145 C-392.86625 144.34 -393.7325 143.68 -394.625 143 C-397.26104311 140.78017422 -397.80656388 139.15408117 -399 136 C-399.99 135.67 -400.98 135.34 -402 135 C-402 134.34 -402 133.68 -402 133 C-402.7425 132.938125 -403.485 132.87625 -404.25 132.8125 C-407.83127761 131.75439525 -408.84857871 129.96747764 -411 127 C-411.66 126.67 -412.32 126.34 -413 126 C-413.33 125.01 -413.66 124.02 -414 123 C-414.825 122.38125 -415.65 121.7625 -416.5 121.125 C-419.31924232 118.72864403 -419.69973137 117.6032236 -420 114 C-420.66 114 -421.32 114 -422 114 C-422.495 111.03 -422.495 111.03 -423 108 C-423.66 108 -424.32 108 -425 108 C-425.495 105.03 -425.495 105.03 -426 102 C-426.66 102 -427.32 102 -428 102 C-428.33 98.7 -428.66 95.4 -429 92 C-429.66 92 -430.32 92 -431 92 C-431.97144634 86.3178099 -432.15091893 80.82082157 -432.125 75.0625 C-432.12886719 74.20720703 -432.13273437 73.35191406 -432.13671875 72.47070312 C-432.12871508 67.22429681 -431.75800859 62.19175723 -431 57 C-430.34 57 -429.68 57 -429 57 C-428.67 54.03 -428.34 51.06 -428 48 C-427.34 48 -426.68 48 -426 48 C-425.896875 46.948125 -425.79375 45.89625 -425.6875 44.8125 C-425.02050668 41.11371887 -424.25009992 38.97013189 -422 36 C-421.34 36 -420.68 36 -420 36 C-419.87625 35.195625 -419.7525 34.39125 -419.625 33.5625 C-419.41875 32.716875 -419.2125 31.87125 -419 31 C-418.34 30.67 -417.68 30.34 -417 30 C-416.67 29.01 -416.34 28.02 -416 27 C-414.34211215 25.65576661 -412.67423683 24.32381517 -411 23 C-410.01 21.6696875 -410.01 21.6696875 -409 20.3125 C-406.69035894 17.64197752 -405.45100574 17.28758381 -402 17 C-401.67 16.01 -401.34 15.02 -401 14 C-400.01 14 -399.02 14 -398 14 C-398 13.34 -398 12.68 -398 12 C-390.71428571 7.42857143 -390.71428571 7.42857143 -386 8 C-386 7.34 -386 6.68 -386 6 C-381.545 5.505 -381.545 5.505 -377 5 C-377 4.34 -377 3.68 -377 3 C-370.99632072 1.95081333 -365.14870006 1.85034288 -359.0625 1.875 C-358.11181641 1.87113281 -357.16113281 1.86726562 -356.18164062 1.86328125 C-350.69427392 1.87084482 -345.42823747 2.1924936 -340 3 C-340 3.66 -340 4.32 -340 5 C-338.845 5.103125 -337.69 5.20625 -336.5 5.3125 C-331.96514352 5.87834662 -328.18457233 7.16466126 -324 9 C-323.505 9.99 -323.505 9.99 -323 11 C-322.01 11.33 -321.02 11.66 -320 12 C-320 12.66 -320 13.32 -320 14 C-319.195625 14.12375 -318.39125 14.2475 -317.5625 14.375 C-316.716875 14.58125 -315.87125 14.7875 -315 15 C-314.505 15.99 -314.505 15.99 -314 17 C-312.515 17.495 -312.515 17.495 -311 18 C-311 18.66 -311 19.32 -311 20 C-309.515 20.495 -309.515 20.495 -308 21 C-308 21.66 -308 22.32 -308 23 C-306.515 23.495 -306.515 23.495 -305 24 C-305 24.66 -305 25.32 -305 26 C-304.195625 26.309375 -304.195625 26.309375 -303.375 26.625 C-300.08021991 28.53250426 -297.40636372 31.04819384 -295 34 C-295 34.66 -295 35.32 -295 36 C-294.01 36.33 -293.02 36.66 -292 37 C-292 37.66 -292 38.32 -292 39 C-291.01 39.33 -290.02 39.66 -289 40 C-289 40.66 -289 41.32 -289 42 C-288.01 42.33 -287.02 42.66 -286 43 C-286 43.66 -286 44.32 -286 45 C-285.01 45.33 -284.02 45.66 -283 46 C-283 46.66 -283 47.32 -283 48 C-282.01 48.33 -281.02 48.66 -280 49 C-280 49.66 -280 50.32 -280 51 C-279.01 51.33 -278.02 51.66 -277 52 C-277 52.66 -277 53.32 -277 54 C-276.01 54.33 -275.02 54.66 -274 55 C-274 55.66 -274 56.32 -274 57 C-273.01 57.33 -272.02 57.66 -271 58 C-271 58.66 -271 59.32 -271 60 C-270.43796875 60.2371875 -269.8759375 60.474375 -269.296875 60.71875 C-266.48105958 62.28947697 -264.52044584 64.21471464 -262.25 66.5 C-261.05117188 67.69109375 -261.05117188 67.69109375 -259.828125 68.90625 C-258 71 -258 71 -258 73 C-257.01 73.33 -256.02 73.66 -255 74 C-255 74.66 -255 75.32 -255 76 C-254.01 76.33 -253.02 76.66 -252 77 C-252 77.66 -252 78.32 -252 79 C-251.01 79.33 -250.02 79.66 -249 80 C-249 80.66 -249 81.32 -249 82 C-248.01 82.33 -247.02 82.66 -246 83 C-246 83.66 -246 84.32 -246 85 C-245.01 85.33 -244.02 85.66 -243 86 C-243 86.66 -243 87.32 -243 88 C-242.01 88.33 -241.02 88.66 -240 89 C-240 89.66 -240 90.32 -240 91 C-239.01 91.33 -238.02 91.66 -237 92 C-237 92.66 -237 93.32 -237 94 C-236.01 94.33 -235.02 94.66 -234 95 C-234 95.66 -234 96.32 -234 97 C-233.46375 97.20625 -232.9275 97.4125 -232.375 97.625 C-229.08021991 99.53250426 -226.40636372 102.04819384 -224 105 C-224 105.66 -224 106.32 -224 107 C-223.01 107.33 -222.02 107.66 -221 108 C-221 108.66 -221 109.32 -221 110 C-220.01 110.33 -219.02 110.66 -218 111 C-218 111.66 -218 112.32 -218 113 C-217.01 113.33 -216.02 113.66 -215 114 C-215 114.66 -215 115.32 -215 116 C-214.01 116.33 -213.02 116.66 -212 117 C-212 117.66 -212 118.32 -212 119 C-211.01 119.33 -210.02 119.66 -209 120 C-209 120.66 -209 121.32 -209 122 C-208.01 122.33 -207.02 122.66 -206 123 C-206 123.66 -206 124.32 -206 125 C-205.01 125.33 -204.02 125.66 -203 126 C-203 126.66 -203 127.32 -203 128 C-202.01 128.33 -201.02 128.66 -200 129 C-200 129.66 -200 130.32 -200 131 C-199.01 131.33 -198.02 131.66 -197 132 C-197 132.66 -197 133.32 -197 134 C-196.46246094 134.21914063 -195.92492187 134.43828125 -195.37109375 134.6640625 C-192.18701332 136.45805839 -189.69608092 138.8762216 -187.0625 141.375 C-183.4800853 144.74562414 -179.87032309 147.9551654 -176 151 C-174.9826127 151.98230498 -173.97403883 152.97469597 -173 154 C-169.24980832 152.74993611 -168.42481772 151.06668123 -166 148 C-164.33333333 146.66666667 -162.66666667 145.33333333 -161 144 C-160.360625 143.195625 -159.72125 142.39125 -159.0625 141.5625 C-156.67244009 138.59303163 -153.92403212 136.43669344 -151 134 C-149.66172696 132.33729713 -148.32810215 130.67083819 -147 129 C-145.33333333 127.66666667 -143.66666667 126.33333333 -142 125 C-141.34 124.175 -140.68 123.35 -140 122.5 C-137.89680365 119.87100457 -135.62100457 118.09680365 -133 116 C-131.9171875 114.63875 -131.9171875 114.63875 -130.8125 113.25 C-130.214375 112.5075 -129.61625 111.765 -129 111 C-128.34 111 -127.68 111 -127 111 C-126.67 109.68 -126.34 108.36 -126 107 C-125.34 107 -124.68 107 -124 107 C-123.67 106.01 -123.34 105.02 -123 104 C-121.34997172 102.64613064 -119.6825613 101.31321858 -118 100 C-117.34 99.01 -116.68 98.02 -116 97 C-115.34 97 -114.68 97 -114 97 C-113.67 96.01 -113.34 95.02 -113 94 C-112.34 94 -111.68 94 -111 94 C-110.67 93.01 -110.34 92.02 -110 91 C-109.34 91 -108.68 91 -108 91 C-107.67 90.01 -107.34 89.02 -107 88 C-106.34 88 -105.68 88 -105 88 C-104.67 87.01 -104.34 86.02 -104 85 C-103.34 85 -102.68 85 -102 85 C-101.67 84.01 -101.34 83.02 -101 82 C-100.34 82 -99.68 82 -99 82 C-98.67 81.01 -98.34 80.02 -98 79 C-97.34 79 -96.68 79 -96 79 C-95.67 78.01 -95.34 77.02 -95 76 C-94.34 76 -93.68 76 -93 76 C-92.67 75.01 -92.34 74.02 -92 73 C-91.34 73 -90.68 73 -90 73 C-89.67 72.01 -89.34 71.02 -89 70 C-88.34 70 -87.68 70 -87 70 C-86.67 69.01 -86.34 68.02 -86 67 C-85.34 67 -84.68 67 -84 67 C-83.34 65.68 -82.68 64.36 -82 63 C-81.34 63 -80.68 63 -80 63 C-79.67 62.01 -79.34 61.02 -79 60 C-78.34 60 -77.68 60 -77 60 C-76.67 59.01 -76.34 58.02 -76 57 C-75.34 57 -74.68 57 -74 57 C-73.67 56.01 -73.34 55.02 -73 54 C-72.34 54 -71.68 54 -71 54 C-70.67 53.01 -70.34 52.02 -70 51 C-69.34 51 -68.68 51 -68 51 C-67.67 50.01 -67.34 49.02 -67 48 C-66.34 48 -65.68 48 -65 48 C-64.67 47.01 -64.34 46.02 -64 45 C-63.34 45 -62.68 45 -62 45 C-61.67 44.01 -61.34 43.02 -61 42 C-60.34 42 -59.68 42 -59 42 C-58.67 41.01 -58.34 40.02 -58 39 C-57.34 39 -56.68 39 -56 39 C-55.67 38.01 -55.34 37.02 -55 36 C-54.34 36 -53.68 36 -53 36 C-52.67 35.01 -52.34 34.02 -52 33 C-51.34 33 -50.68 33 -50 33 C-49.731875 32.401875 -49.46375 31.80375 -49.1875 31.1875 C-48.00082594 29.00152146 -46.90400887 27.58667406 -45 26 C-44.34 26 -43.68 26 -43 26 C-42.67 25.01 -42.34 24.02 -42 23 C-41.34 23 -40.68 23 -40 23 C-39.67 22.01 -39.34 21.02 -39 20 C-38.34 20 -37.68 20 -37 20 C-36.67 19.01 -36.34 18.02 -36 17 C-35.34 17 -34.68 17 -34 17 C-34 16.34 -34 15.68 -34 15 C-32.515 14.505 -32.515 14.505 -31 14 C-30.67 13.34 -30.34 12.68 -30 12 C-27.4375 11.375 -27.4375 11.375 -25 11 C-25 10.34 -25 9.68 -25 9 C-23.02 8.67 -21.04 8.34 -19 8 C-19 7.34 -19 6.68 -19 6 C-15.535 5.505 -15.535 5.505 -12 5 C-12 4.34 -12 3.68 -12 3 C-7.9472484 2.01751476 -4.16138263 1.91840426 0 2 C0 1.34 0 0.68 0 0 Z " fill="#2C2C2C" transform="translate(471,243)"/>
<path d="M0 0 C0.99974854 0.00193359 1.99949707 0.00386719 3.02954102 0.00585938 C9.91868909 0.0462025 16.71698467 0.30059385 23.5625 1.125 C23.5625 1.785 23.5625 2.445 23.5625 3.125 C24.8 3.104375 26.0375 3.08375 27.3125 3.0625 C30.2265825 3.05733319 32.77203327 3.19484442 35.5625 4.125 C35.5625 4.785 35.5625 5.445 35.5625 6.125 C38.5325 6.455 41.5025 6.785 44.5625 7.125 C44.5625 7.785 44.5625 8.445 44.5625 9.125 C46.8725 9.455 49.1825 9.785 51.5625 10.125 C51.5625 10.785 51.5625 11.445 51.5625 12.125 C52.861875 12.24875 54.16125 12.3725 55.5 12.5 C57.71484375 12.7109375 57.71484375 12.7109375 59.5625 13.125 C59.8925 13.785 60.2225 14.445 60.5625 15.125 C61.5525 15.455 62.5425 15.785 63.5625 16.125 C63.5625 16.785 63.5625 17.445 63.5625 18.125 C65.2125 18.455 66.8625 18.785 68.5625 19.125 C68.5625 19.785 68.5625 20.445 68.5625 21.125 C69.8825 21.455 71.2025 21.785 72.5625 22.125 C72.5625 22.785 72.5625 23.445 72.5625 24.125 C73.366875 24.24875 74.17125 24.3725 75 24.5 C75.845625 24.70625 76.69125 24.9125 77.5625 25.125 C77.8925 25.785 78.2225 26.445 78.5625 27.125 C79.5525 27.455 80.5425 27.785 81.5625 28.125 C83.75 30.0625 83.75 30.0625 85.5625 32.125 C85.5625 32.785 85.5625 33.445 85.5625 34.125 C86.5525 34.455 87.5425 34.785 88.5625 35.125 C88.5625 35.785 88.5625 36.445 88.5625 37.125 C89.5525 37.455 90.5425 37.785 91.5625 38.125 C91.5625 38.785 91.5625 39.445 91.5625 40.125 C92.5525 40.455 93.5425 40.785 94.5625 41.125 C94.5625 41.785 94.5625 42.445 94.5625 43.125 C95.5525 43.455 96.5425 43.785 97.5625 44.125 C97.5625 44.785 97.5625 45.445 97.5625 46.125 C98.2225 46.125 98.8825 46.125 99.5625 46.125 C99.8925 47.115 100.2225 48.105 100.5625 49.125 C101.078125 49.62 101.59375 50.115 102.125 50.625 C103.5625 52.125 103.5625 52.125 103.5625 55.125 C104.5525 55.455 105.5425 55.785 106.5625 56.125 C106.5625 57.115 106.5625 58.105 106.5625 59.125 C107.2225 59.125 107.8825 59.125 108.5625 59.125 C108.8925 60.775 109.2225 62.425 109.5625 64.125 C110.2225 64.125 110.8825 64.125 111.5625 64.125 C112.81914978 67.03100261 113.5625 68.92104584 113.5625 72.125 C114.2225 72.125 114.8825 72.125 115.5625 72.125 C115.8925 74.765 116.2225 77.405 116.5625 80.125 C117.2225 80.125 117.8825 80.125 118.5625 80.125 C118.8925 82.435 119.2225 84.745 119.5625 87.125 C120.2225 87.125 120.8825 87.125 121.5625 87.125 C121.8925 91.085 122.2225 95.045 122.5625 99.125 C123.2225 99.125 123.8825 99.125 124.5625 99.125 C125.47143546 104.54160547 125.7090142 109.75544083 125.6953125 115.2421875 C125.69626923 116.0987796 125.69722595 116.9553717 125.69821167 117.83792114 C125.69888899 119.6414599 125.69706611 121.44500115 125.69287109 123.24853516 C125.68752976 125.98475727 125.69282457 128.72081427 125.69921875 131.45703125 C125.69855763 133.21875036 125.69727577 134.98046936 125.6953125 136.7421875 C125.69733673 137.54872772 125.69936096 138.35526794 125.70144653 139.18624878 C125.67962836 144.56822636 125.23352878 149.78409069 124.5625 155.125 C123.9025 155.125 123.2425 155.125 122.5625 155.125 C122.2325 158.755 121.9025 162.385 121.5625 166.125 C120.9025 166.125 120.2425 166.125 119.5625 166.125 C119.2325 168.765 118.9025 171.405 118.5625 174.125 C117.9025 174.125 117.2425 174.125 116.5625 174.125 C116.2325 176.105 115.9025 178.085 115.5625 180.125 C114.9025 180.125 114.2425 180.125 113.5625 180.125 C112.9025 183.095 112.2425 186.065 111.5625 189.125 C110.9025 189.125 110.2425 189.125 109.5625 189.125 C109.2325 190.775 108.9025 192.425 108.5625 194.125 C107.9025 194.125 107.2425 194.125 106.5625 194.125 C106.4078125 195.23875 106.4078125 195.23875 106.25 196.375 C105.51316203 199.3223519 104.61450858 200.90883074 102.5625 203.125 C101.9025 203.125 101.2425 203.125 100.5625 203.125 C100.500625 203.7025 100.43875 204.28 100.375 204.875 C99.23811467 208.02329784 97.19342771 209.10591594 94.5625 211.125 C93.9025 211.95 93.2425 212.775 92.5625 213.625 C90.45930365 216.25399543 88.18350457 218.02819635 85.5625 220.125 C84.923125 220.95 84.28375 221.775 83.625 222.625 C81.24184162 225.51367683 78.72689316 227.14725427 75.5625 229.125 C74.82 229.7025 74.0775 230.28 73.3125 230.875 C71.5625 232.125 71.5625 232.125 69.5625 232.125 C69.5625 232.785 69.5625 233.445 69.5625 234.125 C67.83531484 235.08689997 66.10565942 236.04436508 64.375 237 C63.41207031 237.53367187 62.44914063 238.06734375 61.45703125 238.6171875 C54.72312176 242.125 54.72312176 242.125 50.5625 242.125 C50.5625 242.785 50.5625 243.445 50.5625 244.125 C47.5925 244.455 44.6225 244.785 41.5625 245.125 C41.5625 245.785 41.5625 246.445 41.5625 247.125 C38.2625 247.455 34.9625 247.785 31.5625 248.125 C31.5625 248.785 31.5625 249.445 31.5625 250.125 C25.89607449 251.35017308 20.32541482 251.21728867 14.5625 251.125 C14.5625 251.785 14.5625 252.445 14.5625 253.125 C4.9925 253.125 -4.5775 253.125 -14.4375 253.125 C-14.4375 252.465 -14.4375 251.805 -14.4375 251.125 C-15.08976562 251.13660156 -15.74203125 251.14820313 -16.4140625 251.16015625 C-21.2136914 251.20970994 -25.71534685 251.11913751 -30.4375 250.125 C-30.4375 249.465 -30.4375 248.805 -30.4375 248.125 C-34.0675 247.795 -37.6975 247.465 -41.4375 247.125 C-41.4375 246.465 -41.4375 245.805 -41.4375 245.125 C-42.38625 245.0425 -43.335 244.96 -44.3125 244.875 C-49.32727467 244.18508234 -53.82204926 242.12162356 -58.4375 240.125 C-58.4375 239.465 -58.4375 238.805 -58.4375 238.125 C-60.0875 237.795 -61.7375 237.465 -63.4375 237.125 C-63.4375 236.465 -63.4375 235.805 -63.4375 235.125 C-64.159375 235.021875 -64.88125 234.91875 -65.625 234.8125 C-68.71543421 234.05706053 -70.85493841 232.96968685 -73.4375 231.125 C-73.4375 230.465 -73.4375 229.805 -73.4375 229.125 C-74.4275 228.795 -75.4175 228.465 -76.4375 228.125 C-76.4375 227.465 -76.4375 226.805 -76.4375 226.125 C-77.18 226.063125 -77.9225 226.00125 -78.6875 225.9375 C-82.30767367 224.86790323 -83.21133898 223.11640387 -85.4375 220.125 C-86.6440625 219.1659375 -86.6440625 219.1659375 -87.875 218.1875 C-90.92026683 215.73643157 -93.07043855 213.23599504 -95.4375 210.125 C-95.4375 209.465 -95.4375 208.805 -95.4375 208.125 C-96.4275 207.795 -97.4175 207.465 -98.4375 207.125 C-98.4375 206.135 -98.4375 205.145 -98.4375 204.125 C-99.4275 203.795 -100.4175 203.465 -101.4375 203.125 C-101.4375 202.465 -101.4375 201.805 -101.4375 201.125 C-102.0975 201.125 -102.7575 201.125 -103.4375 201.125 C-103.7675 200.135 -104.0975 199.145 -104.4375 198.125 C-105.0975 197.795 -105.7575 197.465 -106.4375 197.125 C-107.0625 194.5625 -107.0625 194.5625 -107.4375 192.125 C-108.0975 192.125 -108.7575 192.125 -109.4375 192.125 C-109.7675 190.145 -110.0975 188.165 -110.4375 186.125 C-111.0975 186.125 -111.7575 186.125 -112.4375 186.125 C-112.7675 184.145 -113.0975 182.165 -113.4375 180.125 C-114.0975 180.125 -114.7575 180.125 -115.4375 180.125 C-115.7675 178.145 -116.0975 176.165 -116.4375 174.125 C-117.0975 174.125 -117.7575 174.125 -118.4375 174.125 C-119.04817856 172.08527163 -119.65055346 170.04305751 -120.25 168 C-120.58644531 166.86304688 -120.92289063 165.72609375 -121.26953125 164.5546875 C-121.66507858 163.07978023 -122.05349433 161.60295426 -122.4375 160.125 C-122.70062988 159.15570557 -122.96375977 158.18641113 -123.23486328 157.18774414 C-125.5401682 147.81825796 -125.83890313 138.93356075 -125.71875 129.32788086 C-125.68732626 126.79851538 -125.67773325 124.26977684 -125.671875 121.74023438 C-125.66271092 120.10155502 -125.65233705 118.46288188 -125.640625 116.82421875 C-125.63637512 116.08338547 -125.63212524 115.34255219 -125.62774658 114.57926941 C-125.55776058 109.37143761 -125.07425508 104.29464732 -124.4375 99.125 C-123.7775 99.125 -123.1175 99.125 -122.4375 99.125 C-122.40011719 98.42375 -122.36273438 97.7225 -122.32421875 97 C-121.89477131 90.80248398 -120.91104239 85.82490204 -118.4375 80.125 C-117.7775 80.125 -117.1175 80.125 -116.4375 80.125 C-116.39625 79.2175 -116.355 78.31 -116.3125 77.375 C-115.52083814 71.46798458 -112.21748025 66.30239441 -109.4375 61.125 C-108.7775 61.125 -108.1175 61.125 -107.4375 61.125 C-107.31375 60.320625 -107.19 59.51625 -107.0625 58.6875 C-106.753125 57.4190625 -106.753125 57.4190625 -106.4375 56.125 C-105.4475 55.63 -105.4475 55.63 -104.4375 55.125 C-104.1075 54.135 -103.7775 53.145 -103.4375 52.125 C-102.7775 52.125 -102.1175 52.125 -101.4375 52.125 C-101.1075 51.135 -100.7775 50.145 -100.4375 49.125 C-99.7775 49.125 -99.1175 49.125 -98.4375 49.125 C-98.355 48.3825 -98.2725 47.64 -98.1875 46.875 C-97.28940201 43.58197405 -96.05333926 42.26523212 -93.4375 40.125 C-92.7775 40.125 -92.1175 40.125 -91.4375 40.125 C-91.1075 39.135 -90.7775 38.145 -90.4375 37.125 C-89.7775 37.125 -89.1175 37.125 -88.4375 37.125 C-88.1075 36.135 -87.7775 35.145 -87.4375 34.125 C-86.7775 34.125 -86.1175 34.125 -85.4375 34.125 C-85.1075 33.135 -84.7775 32.145 -84.4375 31.125 C-82.14582354 28.1458206 -80.10214055 27.6202217 -76.4375 27.125 C-75.9425 25.64 -75.9425 25.64 -75.4375 24.125 C-74.4475 24.125 -73.4575 24.125 -72.4375 24.125 C-72.4375 23.465 -72.4375 22.805 -72.4375 22.125 C-70.7875 21.795 -69.1375 21.465 -67.4375 21.125 C-66.9425 19.64 -66.9425 19.64 -66.4375 18.125 C-65.4475 18.125 -64.4575 18.125 -63.4375 18.125 C-63.4375 17.465 -63.4375 16.805 -63.4375 16.125 C-61.4575 15.795 -59.4775 15.465 -57.4375 15.125 C-57.4375 14.465 -57.4375 13.805 -57.4375 13.125 C-54.4675 12.63 -54.4675 12.63 -51.4375 12.125 C-51.4375 11.465 -51.4375 10.805 -51.4375 10.125 C-47.9725 9.63 -47.9725 9.63 -44.4375 9.125 C-44.4375 8.465 -44.4375 7.805 -44.4375 7.125 C-39.9825 6.63 -39.9825 6.63 -35.4375 6.125 C-35.4375 5.465 -35.4375 4.805 -35.4375 4.125 C-34.15552734 3.92583984 -34.15552734 3.92583984 -32.84765625 3.72265625 C-31.74292969 3.54605469 -30.63820313 3.36945312 -29.5 3.1875 C-28.39785156 3.01347656 -27.29570312 2.83945312 -26.16015625 2.66015625 C-23.53323071 2.40654864 -23.53323071 2.40654864 -22.4375 1.125 C-15.01080086 0.02251173 -7.49222422 -0.0353377 0 0 Z " fill="#2C2C2C" transform="translate(306.4375,25.875)"/>
</svg>
